#!OML:ASF F:\VICON\USERDATA\INSTALL\rory3\rory3.ASF
:FULLY-SPECIFIED
:DEGREES
281
root 4.46789 16.5615 -15.3571 28.6492 7.09231 -4.24918
lowerback -17.2776 -0.831125 5.1303
upperback -10.3134 -1.82779 4.73315
thorax -1.38103 -0.999968 1.82134
lowerneck -13.3437 -2.55442 -0.277069
upperneck 41.9191 -3.73316 -0.678136
head 17.749 -1.64211 -0.945594
rclavicle 2.36181e-014 -1.03368e-014
rhumerus -50.592 20.0186 -80.0067
rradius 21.1708
rwrist -0.976106
rhand 10.8486 13.0349
rfingers 7.12502
rthumb 35.9308 -13.2986
lclavicle 2.36181e-014 -1.03368e-014
lhumerus -55.8514 -4.67159 92.1899
lradius 29.8214
lwrist 0.876177
lhand 4.94228 14.6028
lfingers 7.12502
lthumb 30.3149 42.1326
rfemur -43.1526 4.08654 34.4735
rtibia 30.3185
rfoot -29.6439 -30.8797
rtoes 20.3393
lfemur -21.1762 20.3938 -27.4163
ltibia 40.0447
lfoot 44.8897 24.969
ltoes -7.68466
282
root 4.47024 16.5667 -15.359 28.6683 7.13104 -4.26414
lowerback -17.0807 -0.783112 5.24491
upperback -10.4179 -1.75593 4.69223
thorax -1.60229 -0.974146 1.73161
lowerneck -13.2681 -2.56426 -0.226039
upperneck 41.9353 -3.74671 -0.718828
head 17.7352 -1.64492 -0.974396
rclavicle 3.01904e-014 2.46493e-014
rhumerus -50.6981 19.8234 -79.6298
rradius 21.1257
rwrist -0.204581
rhand 10.821 13.2161
rfingers 7.12502
rthumb 35.9046 -13.1238
lclavicle 3.01904e-014 2.46493e-014
lhumerus -55.971 -4.88299 92.3119
lradius 29.7222
lwrist 1.17922
lhand 4.88591 14.5334
lfingers 7.12502
lthumb 30.2611 42.0731
rfemur -43.2211 4.04304 34.4819
rtibia 30.3553
rfoot -29.6051 -30.8447
rtoes 20.3763
lfemur -21.1718 20.3062 -27.3828
ltibia 39.978
lfoot 44.8224 25.0275
ltoes -7.22641
283
root 4.47724 16.5702 -15.3611 28.5973 7.26178 -4.3158
lowerback -16.6507 -0.707317 5.5653
upperback -10.6041 -1.64782 4.58403
thorax -2.04377 -0.946656 1.46762
lowerneck -13.169 -2.59653 -0.218142
upperneck 42.0161 -3.83036 -0.64921
head 17.7584 -1.66676 -0.958181
rclavicle -1.66599e-015 -4.13472e-014
rhumerus -50.9617 19.6741 -79.4824
rradius 20.9363
rwrist 0.628866
rhand 10.5172 13.2427
rfingers 7.12502
rthumb 35.6168 -13.167
lclavicle -1.66599e-015 -4.13472e-014
lhumerus -56.3084 -5.12692 92.3542
lradius 29.794
lwrist 1.33635
lhand 4.91848 14.544
lfingers 7.12502
lthumb 30.2922 42.078
rfemur -43.1539 3.53994 34.7568
rtibia 30.2898
rfoot -27.8569 -31.0736
rtoes 17.4422
lfemur -21.0653 20.1924 -27.2363
ltibia 39.9944
lfoot 43.9773 25.9361
ltoes -3.80689
284
root 4.4739 16.5653 -15.3589 28.6254 7.16668 -4.29906
lowerback -16.9729 -0.71422 5.37342
upperback -10.3953 -1.6746 4.67774
thorax -1.63895 -0.93966 1.65817
lowerneck -13.0919 -2.63595 -0.405183
upperneck 41.7484 -3.85884 -0.559935
head 17.59 -1.70023 -0.881187
rclavicle 2.38914e-014 0
rhumerus -50.5641 20.0143 -79.2664
rradius 20.6462
rwrist 0.916209
rhand 10.6868 12.7778
rfingers 7.12502
rthumb 35.7774 -13.5931
lclavicle 2.38914e-014 0
lhumerus -56.0054 -4.91303 92.294
lradius 29.7729
lwrist 1.25588
lhand 4.79348 14.3922
lfingers 7.12502
lthumb 30.173 41.948
rfemur -43.112 3.76455 34.6609
rtibia 30.2523
rfoot -27.2181 -31.4331
rtoes 15.6762
lfemur -21.1028 20.3362 -27.2692
ltibia 40.0188
lfoot 45.1225 24.2082
ltoes -8.69912
285
root 4.47469 16.5497 -15.3639 28.6704 7.18157 -4.29163
lowerback -17.1064 -0.710465 5.36106
upperback -10.2979 -1.68639 4.70859
thorax -1.46288 -0.940436 1.691
lowerneck -13.0703 -2.68718 -0.499068
upperneck 41.6121 -3.91969 -0.521978
head 17.5094 -1.73666 -0.854655
rclavicle 6.8208e-015 -1.51076e-014
rhumerus -50.2277 19.963 -78.8446
rradius 20.3509
rwrist 1.38883
rhand 10.8441 12.5955
rfingers 7.12502
rthumb 35.9265 -13.739
lclavicle 6.8208e-015 -1.51076e-014
lhumerus -55.7396 -4.70559 92.1247
lradius 29.5162
lwrist 1.05668
lhand 4.81191 14.2772
lfingers 7.12502
lthumb 30.1906 41.8298
rfemur -42.9087 3.57772 34.794
rtibia 30.1863
rfoot -29.9178 -29.5898
rtoes 21.6785
lfemur -21.1943 20.3904 -27.2862
ltibia 40.0914
lfoot 44.6315 24.4762
ltoes -6.81538
286
root 4.47561 16.5647 -15.3669 28.7877 7.15683 -4.36734
lowerback -17.0957 -0.68686 5.43277
upperback -10.3248 -1.66306 4.76496
thorax -1.49905 -0.931075 1.71526
lowerneck -13.2326 -2.69223 -0.569437
upperneck 41.6902 -3.90919 -0.518555
head 17.6 -1.74051 -0.844004
rclavicle 3.70485e-014 -3.18055e-014
rhumerus -49.933 19.5098 -78.0595
rradius 20.2129
rwrist 2.49408
rhand 11.2382 12.4459
rfingers 7.12502
rthumb 36.2998 -13.7963
lclavicle 3.70485e-014 -3.18055e-014
lhumerus -55.5402 -4.52889 92.0692
lradius 29.0954
lwrist 0.904435
lhand 4.63731 13.9942
lfingers 7.12502
lthumb 30.024 41.5772
rfemur -43.2902 3.95426 34.6394
rtibia 30.1886
rfoot -27.5801 -31.1964
rtoes 17.1032
lfemur -21.3819 20.4116 -27.2811
ltibia 40.1125
lfoot 45.0308 24.6675
ltoes -7.52545
287
root 4.4811 16.5726 -15.3757 28.9582 6.96559 -4.4297
lowerback -17.1078 -0.602556 5.51516
upperback -10.3387 -1.56459 4.77904
thorax -1.51035 -0.885394 1.69947
lowerneck -13.3949 -2.67315 -0.509208
upperneck 41.6556 -3.85117 -0.628693
head 17.6168 -1.72201 -0.897871
rclavicle -3.0091e-014 8.66701e-014
rhumerus -49.6699 19.0605 -77.3689
rradius 20.05
rwrist 3.56287
rhand 11.3707 12.6683
rfingers 7.12502
rthumb 36.4252 -13.5426
lclavicle -3.0091e-014 8.66701e-014
lhumerus -55.4167 -4.53031 92.1435
lradius 28.9069
lwrist 0.97387
lhand 4.567 13.8694
lfingers 7.12502
lthumb 29.9569 41.4645
rfemur -43.6122 3.70916 34.7921
rtibia 30.2125
rfoot -27.7036 -30.9712
rtoes 17.1969
lfemur -21.6788 20.5129 -27.4291
ltibia 40.152
lfoot 45.4572 24.8099
ltoes -8.36027
288
root 4.48444 16.573 -15.3839 29.0399 6.84278 -4.45217
lowerback -17.1527 -0.521125 5.5481
upperback -10.2906 -1.46951 4.75199
thorax -1.43612 -0.838211 1.66509
lowerneck -13.3935 -2.66494 -0.428459
upperneck 41.4821 -3.84224 -0.664361
head 17.5118 -1.71264 -0.923072
rclavicle 9.57894e-015 -3.89618e-014
rhumerus -49.347 18.5109 -76.7611
rradius 19.631
rwrist 4.61216
rhand 10.3142 13.9429
rfingers 7.12502
rthumb 35.4242 -12.513
lclavicle 9.57894e-015 -3.89618e-014
lhumerus -55.2485 -4.42987 91.983
lradius 28.7421
lwrist 0.633118
lhand 4.93913 14.0174
lfingers 7.12502
lthumb 30.3119 41.5478
rfemur -43.7979 3.63229 34.8418
rtibia 30.3248
rfoot -25.8488 -31.4299
rtoes 13.3379
lfemur -21.8251 20.6334 -27.5345
ltibia 40.1468
lfoot 45.2669 25.4326
ltoes -7.03123
289
root 4.48334 16.571 -15.389 29.0347 6.77669 -4.40774
lowerback -17.0943 -0.489422 5.47617
upperback -10.277 -1.41347 4.73179
thorax -1.44876 -0.807445 1.69285
lowerneck -13.382 -2.65824 -0.377726
upperneck 41.4424 -3.83983 -0.677792
head 17.4838 -1.70551 -0.936477
rclavicle -1.61016e-014 2.8625e-014
rhumerus -49.0197 17.8817 -76.1136
rradius 19.0681
rwrist 5.88481
rhand 8.90833 14.8497
rfingers 7.12502
rthumb 34.0902 -11.914
lclavicle -1.61016e-014 2.8625e-014
lhumerus -55.3243 -4.43894 91.9898
lradius 28.7493
lwrist 0.55828
lhand 5.17781 14.2868
lfingers 7.12502
lthumb 30.5396 41.775
rfemur -43.8493 4.16561 34.5183
rtibia 30.4248
rfoot -26.5913 -31.6555
rtoes 14.725
lfemur -21.8085 20.746 -27.6104
ltibia 40.1318
lfoot 44.991 25.8569
ltoes -6.15892
290
root 4.48465 16.5706 -15.3958 29.0539 6.63339 -4.28937
lowerback -16.9602 -0.485878 5.34212
upperback -10.2887 -1.37848 4.70983
thorax -1.52602 -0.786194 1.75175
lowerneck -13.3966 -2.6356 -0.400766
upperneck 41.453 -3.80487 -0.65957
head 17.4953 -1.69197 -0.918231
rclavicle -4.33599e-015 3.02153e-014
rhumerus -48.7331 17.4309 -75.603
rradius 18.6774
rwrist 6.97317
rhand 7.71092 14.9156
rfingers 7.12502
rthumb 32.9521 -12.0947
lclavicle -4.33599e-015 3.02153e-014
lhumerus -55.4976 -4.49185 92.1761
lradius 29.0115
lwrist 1.00055
lhand 4.95074 14.63
lfingers 7.12502
lthumb 30.323 42.1583
rfemur -43.8559 4.41063 34.2277
rtibia 30.3808
rfoot -26.6928 -31.744
rtoes 14.9669
lfemur -21.8818 20.8322 -27.8237
ltibia 40.2154
lfoot 44.8927 25.7457
ltoes -6.3817
291
root 4.48644 16.568 -15.4005 29.1888 6.40569 -3.89691
lowerback -17.0332 -0.512681 4.93515
upperback -10.2682 -1.36521 4.58854
thorax -1.45328 -0.764025 1.85108
lowerneck -13.5434 -2.60004 -0.337219
upperneck 41.5265 -3.76412 -0.678754
head 17.574 -1.66546 -0.935842
rclavicle -1.5791e-014 6.04305e-014
rhumerus -48.3713 16.654 -74.9214
rradius 18.3629
rwrist 8.32149
rhand 6.70521 15.1718
rfingers 7.12502
rthumb 31.995 -12.0351
lclavicle -1.5791e-014 6.04305e-014
lhumerus -55.4953 -4.57297 92.2627
lradius 29.1315
lwrist 1.10151
lhand 4.68583 14.5578
lfingers 7.12502
lthumb 30.0703 42.1323
rfemur -43.9573 4.447 33.7224
rtibia 30.4052
rfoot -28.4753 -30.9965
rtoes 18.5936
lfemur -22.0134 20.8453 -28.3874
ltibia 40.2571
lfoot 45.1138 25.2817
ltoes -7.44446
292
root 4.49278 16.5618 -15.4095 29.0146 6.83637 -4.33135
lowerback -16.9078 -0.454199 5.60707
upperback -10.2267 -1.37164 4.66364
thorax -1.49664 -0.794784 1.55523
lowerneck -13.4474 -2.63943 -0.273277
upperneck 41.4888 -3.83965 -0.689517
head 17.5241 -1.68833 -0.962683
rclavicle 8.67198e-015 -3.4191e-014
rhumerus -48.1338 15.6932 -74.209
rradius 18.0564
rwrist 9.72423
rhand 6.1034 15.4523
rfingers 7.12502
rthumb 31.4218 -11.8679
lclavicle 8.67198e-015 -3.4191e-014
lhumerus -55.4616 -4.87892 92.4438
lradius 29.07
lwrist 1.35518
lhand 4.38058 14.3559
lfingers 7.12502
lthumb 29.779 41.983
rfemur -43.6721 3.61924 34.6855
rtibia 30.3387
rfoot -27.401 -30.4699
rtoes 17.1855
lfemur -21.995 20.8162 -27.7461
ltibia 40.4297
lfoot 45.016 25.7133
ltoes -6.52942
293
root 4.48149 16.553 -15.4154 29.1463 6.38241 -3.95093
lowerback -16.9365 -0.431156 4.97324
upperback -10.3044 -1.25178 4.53634
thorax -1.5448 -0.711303 1.79369
lowerneck -13.0531 -2.71533 -0.401259
upperneck 41.3168 -3.97711 -0.529682
head 17.3313 -1.74802 -0.878752
rclavicle 2.47238e-014 -2.94201e-014
rhumerus -48.0336 14.8138 -73.6131
rradius 17.5818
rwrist 11.2383
rhand 5.2434 15.7765
rfingers 7.12502
rthumb 30.6021 -11.7001
lclavicle 2.47238e-014 -2.94201e-014
lhumerus -55.5793 -5.01088 92.5121
lradius 29.057
lwrist 1.56479
lhand 4.10784 14.1855
lfingers 7.12502
lthumb 29.5187 41.8589
rfemur -43.7239 4.52785 33.8254
rtibia 30.3077
rfoot -30.0294 -30.0552
rtoes 22.1591
lfemur -22.2532 21.0261 -28.3745
ltibia 40.5693
lfoot 46.0563 24.3585
ltoes -10.7307
294
root 4.48657 16.5548 -15.4258 29.1821 6.28494 -4.09112
lowerback -16.8457 -0.347353 5.16604
upperback -10.2578 -1.16435 4.56991
thorax -1.54693 -0.674963 1.73469
lowerneck -13.1934 -2.68446 -0.410089
upperneck 41.2509 -3.92228 -0.531663
head 17.3306 -1.72683 -0.870093
rclavicle -1.85615e-014 4.45278e-014
rhumerus -47.7126 14.1809 -73.1674
rradius 16.9675
rwrist 12.8527
rhand 3.91067 16.135
rfingers 7.12502
rthumb 29.3304 -11.5714
lclavicle -1.85615e-014 4.45278e-014
lhumerus -55.458 -4.8327 92.4416
lradius 29.0544
lwrist 1.64218
lhand 3.75195 13.869
lfingers 7.12502
lthumb 29.1789 41.6019
rfemur -43.7136 4.23218 34.0954
rtibia 30.1894
rfoot -30.4306 -29.3562
rtoes 23.2209
lfemur -22.4712 21.1951 -28.3809
ltibia 40.7719
lfoot 45.5466 24.2427
ltoes -9.48077
